<?xml version="1.0" encoding="UTF-8"?>
<svg id="Calque_2" data-name="Calque 2" xmlns="http://www.w3.org/2000/svg" viewBox="0 0 408.79 251.91">
  <defs>
    <style>
      .cls-1 {
        fill: #fff;
      }

      .cls-2 {
        fill: #2fa836;
        font-family: MontserratAlternates-Light, 'Montserrat Alternates';
      }

      .cls-2, .cls-3 {
        font-size: 97.48px;
      }

      .cls-4 {
        fill: #37a936;
      }

      .cls-5 {
        letter-spacing: -.02em;
      }

      .cls-6 {
        fill: #c11718;
      }

      .cls-3 {
        fill: #e52421;
        font-family: MontserratAlternates-Black, 'Montserrat Alternates';
      }

      .cls-7 {
        letter-spacing: -.02em;
      }
    </style>
  </defs>
  <g id="Calque_1-2" data-name="Calque 1">
    <rect class="cls-1" width="408.79" height="243.32" rx="54.54" ry="54.54"/>
    <path class="cls-4" d="M153.16,30.84c11.28-5.18,24.84-1.94,34.06,6.28,7.07,6.3,11.29,16.26,9.68,25.7-.48,3.02-1.51,5.94-3.21,8.56-.26-2.59-.48-5.28-1.13-7.79-3.72-19.06-21.57-29.41-39.41-32.75h0Z"/>
    <path class="cls-6" d="M188.3,14.36c11.96,3.18,20.37,14.41,22.2,26.59,1.41,9.36-1.7,19.72-8.96,25.96-2.3,2.02-4.95,3.61-7.94,4.54,1.45-2.16,3-4.37,4.11-6.71,9.31-17,2.17-36.44-9.41-50.37h0Z"/>
    <path class="cls-4" d="M225.86,23.91c13.03,18.39,.2,48.23-23.14,49.01-3.06,.1-6.11-.37-9.02-1.55l1.9-.57c4.37-1.25,8.62-3.16,12.36-5.73,13.27-8.97,17.88-25.89,17.9-41.16h0Z"/>
    <text class="cls-2" transform="translate(65 226.86)"><tspan x="0" y="0">F</tspan><tspan class="cls-7" x="50.3" y="0">O</tspan><tspan x="127.9" y="0">OD</tspan></text>
    <text class="cls-3" transform="translate(24.88 145.23)"><tspan class="cls-5" x="0" y="0">K</tspan><tspan x="73.6" y="0">ONGO</tspan></text>
  </g>
</svg>